<svg width="702" height="87" viewBox="0 0 702 87" fill="none" xmlns="http://www.w3.org/2000/svg">
<path d="M33.6004 48.64C33.6004 50.56 33.6004 52.48 33.6004 54.48L45.5204 48.4C45.2004 46.64 44.6404 44.96 43.8404 43.44L33.6004 48.64ZM33.6004 46.08L42.6404 41.44C40.4004 38.16 37.2004 35.68 33.6004 34.24C33.6004 38.16 33.6004 42.16 33.6004 46.08ZM33.6004 57.04C33.6004 60.32 33.6004 63.52 33.6004 66.8C40.8804 65.68 45.8404 59.12 45.8404 51.52C45.8404 51.36 45.8404 51.12 45.7604 50.88L33.6004 57.04ZM13.8404 51.6C15.2804 50.08 16.1604 48 16.4804 45.68C16.7204 44.08 16.7204 42.56 16.7204 40.96C16.7204 33.12 16.7204 25.36 16.7204 17.52C13.2004 21.2 11.4404 26.48 11.4404 33.36C11.4404 39.44 12.0804 46 13.8404 51.6ZM15.2004 55.36C18.1604 62.16 23.2004 67.04 31.2004 67.04C31.2804 67.04 31.2804 67.04 31.2804 67.04C31.2804 56.32 31.2804 45.68 31.2804 35.04L27.0404 39.28V40.56C27.0404 42.4 26.9604 44.24 26.4004 45.92C24.8804 50.64 20.5604 54 15.2004 55.36ZM27.0404 12.16V36L41.5204 21.68C36.6404 19.28 32.0004 15.28 27.7604 12.08C27.5204 12.08 27.2804 12.16 27.0404 12.16ZM40.6404 25.76C49.0404 27.52 56.0004 35.04 56.0004 45.12C56.0004 59.84 42.7204 69.92 28.0804 69.92C12.1604 69.92 0.400391 57.84 0.400391 42.08C0.400391 25.92 13.3604 11.92 28.2404 10.32L35.6804 5.76C39.6804 9.04 44.4004 11.68 49.6804 13.6L52.3204 10.96L53.9204 12.64L40.6404 25.76Z" fill="white"/>
<path d="M75.1541 55.76L84.3541 61.92V38.88L75.1541 32.8V55.76ZM62.1141 62.64L60.7541 60.88L64.8341 57.6C64.8341 50.72 64.8341 43.84 64.8341 36.96L82.8341 26.64L94.3541 35.44V57.28L76.6741 68.08L65.4741 59.92L62.1141 62.64Z" fill="white"/>
<path d="M292.748 58.9062C292.092 58.625 291.764 58.3281 291.764 58.0156C291.764 57.6719 292.154 57.2812 292.935 56.8438C294.373 56.0312 295.092 54.7969 295.092 53.1406V25.625C295.092 25.0625 295.342 24.75 295.842 24.6875C305.154 23.5312 312.295 21.3594 317.264 18.1719C317.639 17.9219 318.045 17.7969 318.482 17.7969C318.92 17.7969 319.185 18.1094 319.279 18.7344C319.748 22.1406 320.889 24.875 322.701 26.9375C326.451 31.1562 328.326 36.4844 328.326 42.9219C328.326 49.2969 324.654 55.0312 317.31 60.125C313.967 62.4375 311.435 65.0781 309.717 68.0469C309.373 68.6406 309.014 68.9375 308.639 68.9375C308.264 68.9375 307.842 68.6719 307.373 68.1406C304.592 64.9844 299.717 61.9062 292.748 58.9062ZM304.607 53.6094C304.607 53.9844 304.795 54.2656 305.17 54.4531C306.857 55.3281 309.06 56.8281 311.779 58.9531C312.31 59.3594 312.904 59.5625 313.56 59.5625C314.248 59.5625 315.029 59.2344 315.904 58.5781C318.685 56.5469 320.076 52.8125 320.076 47.375C320.076 41.9375 318.357 36.9375 314.92 32.375C312.951 29.6875 311.685 27.3438 311.123 25.3438C310.873 24.4375 310.529 23.9844 310.092 23.9844C309.654 23.9844 309.232 24.0625 308.826 24.2188C308.045 24.5 306.935 24.7969 305.498 25.1094C304.904 25.2344 304.607 25.5938 304.607 26.1875V53.6094Z" fill="white"/>
<path d="M333.224 29.1406C333.224 28.8594 333.474 28.375 333.974 27.6875C336.349 24.375 338.224 21.3594 339.599 18.6406C339.88 18.0781 340.239 17.7969 340.677 17.7969C341.145 17.7969 341.505 18.0625 341.755 18.5938C342.005 19.125 342.505 19.5781 343.255 19.9531C346.38 21.5469 348.364 23.8594 349.208 26.8906C349.302 27.2344 349.427 27.4062 349.583 27.4062C349.739 27.4062 349.911 27.2969 350.099 27.0781L357.786 18.2656C358.067 17.9531 358.333 17.7969 358.583 17.7969C358.833 17.7969 359.067 18 359.286 18.4062L363.739 26.8906C363.927 27.2344 364.02 27.5781 364.02 27.9219C364.02 28.2656 363.88 28.5938 363.599 28.9062L358.536 34.7188C358.255 35.0312 357.989 35.1875 357.739 35.1875C357.489 35.1875 357.255 34.9844 357.036 34.5781L353.38 27.6406C353.224 27.3594 353.052 27.2188 352.864 27.2188C352.708 27.2188 352.536 27.3281 352.349 27.5469L350.427 29.75C349.895 30.3438 349.63 31.0156 349.63 31.7656V55.5312C349.63 57.7812 350.708 58.9062 352.864 58.9062C353.77 58.9062 354.895 58.1406 356.239 56.6094L357.974 54.6406C358.349 54.2031 358.708 53.9844 359.052 53.9844C359.77 53.9844 360.13 54.3281 360.13 55.0156C360.13 55.2656 359.942 55.6094 359.567 56.0469L357.833 58.0156C354.645 61.6094 352.255 65.0312 350.661 68.2812C350.442 68.7188 350.161 68.9375 349.817 68.9375C349.474 68.9375 349.099 68.7188 348.692 68.2812C344.692 64 340.895 61.6406 337.302 61.2031C336.77 61.1406 336.505 60.9219 336.505 60.5469C336.505 60.1719 336.677 59.8906 337.02 59.7031C339.083 58.5781 340.114 56.7812 340.114 54.3125V31.0625C340.114 28.9062 339.224 27.8281 337.442 27.8281C336.817 27.8281 336.239 28.2031 335.708 28.9531C335.177 29.7031 334.63 30.0781 334.067 30.0781C333.505 30.0781 333.224 29.7656 333.224 29.1406Z" fill="white"/>
<path d="M427.572 48.64C427.572 50.56 427.572 52.48 427.572 54.48L439.492 48.4C439.172 46.64 438.612 44.96 437.812 43.44L427.572 48.64ZM427.572 46.08L436.612 41.44C434.372 38.16 431.172 35.68 427.572 34.24C427.572 38.16 427.572 42.16 427.572 46.08ZM427.572 57.04C427.572 60.32 427.572 63.52 427.572 66.8C434.852 65.68 439.812 59.12 439.812 51.52C439.812 51.36 439.812 51.12 439.732 50.88L427.572 57.04ZM407.812 51.6C409.252 50.08 410.132 48 410.452 45.68C410.692 44.08 410.692 42.56 410.692 40.96C410.692 33.12 410.692 25.36 410.692 17.52C407.172 21.2 405.412 26.48 405.412 33.36C405.412 39.44 406.052 46 407.812 51.6ZM409.172 55.36C412.132 62.16 417.172 67.04 425.172 67.04C425.252 67.04 425.252 67.04 425.252 67.04C425.252 56.32 425.252 45.68 425.252 35.04L421.012 39.28V40.56C421.012 42.4 420.932 44.24 420.372 45.92C418.852 50.64 414.532 54 409.172 55.36ZM421.012 12.16V36L435.492 21.68C430.612 19.28 425.972 15.28 421.732 12.08C421.492 12.08 421.252 12.16 421.012 12.16ZM434.612 25.76C443.012 27.52 449.972 35.04 449.972 45.12C449.972 59.84 436.692 69.92 422.052 69.92C406.132 69.92 394.372 57.84 394.372 42.08C394.372 25.92 407.332 11.92 422.212 10.32L429.652 5.76C433.652 9.04 438.372 11.68 443.652 13.6L446.292 10.96L447.892 12.64L434.612 25.76Z" fill="white"/>
<path d="M469.125 55.76L478.325 61.92V38.88L469.125 32.8V55.76ZM456.085 62.64L454.725 60.88L458.805 57.6C458.805 50.72 458.805 43.84 458.805 36.96L476.805 26.64L488.325 35.44V57.28L470.645 68.08L459.445 59.92L456.085 62.64Z" fill="white"/>
<path d="M514.93 4.76562C514.93 4.17188 515.258 3.875 515.914 3.875C516.633 3.875 518.242 5.79688 520.742 9.64062C521.086 10.1719 521.414 10.4375 521.727 10.4375C522.07 10.4375 522.383 10.2031 522.664 9.73438C526.852 3.32812 532.602 0.125 539.914 0.125C541.102 0.125 541.695 0.484375 541.695 1.20312C541.695 1.89062 541.102 2.23438 539.914 2.23438C533.57 2.23438 530.398 6.20312 530.398 14.1406V25.6719C530.398 26.2031 530.492 26.4688 530.68 26.4688C530.898 26.4688 531.117 26.3906 531.336 26.2344L541.695 18.5938C542.414 18.0625 542.961 17.7969 543.336 17.7969C543.742 17.7969 543.945 18.0781 543.945 18.6406C543.945 19.4531 544.805 20.6875 546.523 22.3438C552.805 28.4375 555.945 36.25 555.945 45.7812C555.945 58.25 545.805 71.6875 525.523 86.0938C525.18 86.375 524.758 86.5156 524.258 86.5156C523.758 86.5156 523.508 86.1875 523.508 85.5312C523.508 85.1875 523.711 84.8438 524.117 84.5C539.023 71.9062 546.477 60.75 546.477 51.0312C546.477 41.2812 544.148 33.8594 539.492 28.7656C538.117 27.2656 536.93 26.5156 535.93 26.5156C534.961 26.5156 534.195 26.7188 533.633 27.125L531.148 28.9531C530.648 29.3281 530.398 29.8594 530.398 30.5469V55.5312C530.398 57.7812 531.477 58.9062 533.633 58.9062C534.445 58.9062 535.57 58.1406 537.008 56.6094C537.414 56.1719 537.773 55.9531 538.086 55.9531C538.805 55.9531 539.164 56.2812 539.164 56.9375C539.164 57.2188 538.977 57.5781 538.602 58.0156C535.352 61.8281 532.961 65.25 531.43 68.2812C531.211 68.7188 530.93 68.9375 530.586 68.9375C530.242 68.9375 529.867 68.7188 529.461 68.2812C525.461 64 521.664 61.6406 518.07 61.2031C517.539 61.1406 517.273 60.9219 517.273 60.5469C517.273 60.1719 517.445 59.8906 517.789 59.7031C519.852 58.5781 520.883 56.7812 520.883 54.3125V20.75C520.883 14.5625 519.07 9.65625 515.445 6.03125C515.102 5.6875 514.93 5.26562 514.93 4.76562Z" fill="white"/>
<path d="M563.937 58.9062C563.28 58.625 562.952 58.3281 562.952 58.0156C562.952 57.6719 563.343 57.2812 564.124 56.8438C565.562 56.0312 566.28 54.7969 566.28 53.1406V25.625C566.28 25.0625 566.53 24.75 567.03 24.6875C576.343 23.5312 583.484 21.3594 588.452 18.1719C588.827 17.9219 589.234 17.7969 589.671 17.7969C590.109 17.7969 590.374 18.1094 590.468 18.7344C590.937 22.1406 592.077 24.875 593.89 26.9375C597.64 31.1562 599.515 36.4844 599.515 42.9219C599.515 49.2969 595.843 55.0312 588.499 60.125C585.155 62.4375 582.624 65.0781 580.905 68.0469C580.562 68.6406 580.202 68.9375 579.827 68.9375C579.452 68.9375 579.03 68.6719 578.562 68.1406C575.78 64.9844 570.905 61.9062 563.937 58.9062ZM575.796 53.6094C575.796 53.9844 575.984 54.2656 576.359 54.4531C578.046 55.3281 580.249 56.8281 582.968 58.9531C583.499 59.3594 584.093 59.5625 584.749 59.5625C585.437 59.5625 586.218 59.2344 587.093 58.5781C589.874 56.5469 591.265 52.8125 591.265 47.375C591.265 41.9375 589.546 36.9375 586.109 32.375C584.14 29.6875 582.874 27.3438 582.312 25.3438C582.062 24.4375 581.718 23.9844 581.28 23.9844C580.843 23.9844 580.421 24.0625 580.015 24.2188C579.234 24.5 578.124 24.7969 576.687 25.1094C576.093 25.2344 575.796 25.5938 575.796 26.1875V53.6094Z" fill="white"/>
<path d="M604.412 29.1406C604.412 28.8594 604.662 28.375 605.162 27.6875C607.568 24.375 609.443 21.3594 610.787 18.6406C611.068 18.0781 611.428 17.7969 611.865 17.7969C612.334 17.7969 612.693 18.0625 612.943 18.5938C613.193 19.125 613.693 19.5781 614.443 19.9531C617.131 21.2969 619.1 23.5469 620.35 26.7031C620.475 27.0156 620.6 27.1719 620.725 27.1719C620.85 27.1719 620.975 27.1094 621.1 26.9844L630.428 18.2656C630.772 17.9531 631.115 17.7969 631.459 17.7969C631.834 17.7969 632.209 17.9062 632.584 18.125C636.084 20.0625 638.584 22.9219 640.084 26.7031C640.209 27.0156 640.334 27.1719 640.459 27.1719C640.584 27.1719 640.709 27.1094 640.834 26.9844L650.256 18.1719C650.537 17.9219 650.787 17.7969 651.006 17.7969C651.225 17.7969 651.428 17.9219 651.615 18.1719C654.115 21.5156 657.647 24.125 662.209 26C663.053 26.3438 663.475 26.6875 663.475 27.0312C663.475 27.375 663.115 27.7188 662.397 28.0625C660.99 28.7812 660.287 30.0625 660.287 31.9062V55.6719C660.287 57.8281 661.178 58.9062 662.959 58.9062C663.584 58.9062 664.162 58.5312 664.693 57.7812C665.225 57.0312 665.772 56.6562 666.334 56.6562C666.897 56.6562 667.178 56.9688 667.178 57.5938C667.178 57.875 666.928 58.3594 666.428 59.0469C664.053 62.3594 662.178 65.375 660.803 68.0938C660.522 68.6562 660.147 68.9375 659.678 68.9375C659.24 68.9375 658.897 68.6719 658.647 68.1406C658.397 67.6094 657.897 67.1562 657.147 66.7812C652.897 64.6562 650.772 61.2344 650.772 56.5156V30.8281C650.772 30.3906 650.615 30.0625 650.303 29.8438C648.365 28.5312 646.897 27.25 645.897 26C645.772 25.8438 645.615 25.7656 645.428 25.7656C645.272 25.7656 645.115 25.8438 644.959 26L640.928 29.7969C640.678 30.0469 640.553 30.3594 640.553 30.7344V53.6094C640.553 55.7969 641.49 57.5625 643.365 58.9062C643.709 59.1562 643.881 59.4219 643.881 59.7031C643.881 59.9531 643.678 60.2188 643.272 60.5C640.772 62.2188 638.6 64.75 636.756 68.0938C636.443 68.6562 636.115 68.9375 635.772 68.9375C635.459 68.9375 635.147 68.6562 634.834 68.0938C632.99 64.75 630.818 62.2188 628.318 60.5C627.912 60.2188 627.709 59.9688 627.709 59.75C627.709 59.5 627.881 59.2188 628.225 58.9062C630.1 57.0625 631.037 55.2969 631.037 53.6094V33.2656C631.037 30.1719 630.053 27.9219 628.084 26.5156C627.459 26.0781 626.85 25.8594 626.256 25.8594C625.662 25.8594 625.115 26.0938 624.615 26.5625L621.193 29.7969C620.943 30.0469 620.818 30.3594 620.818 30.7344V53.6094C620.818 55.7656 621.756 57.5312 623.631 58.9062C623.975 59.1562 624.147 59.4219 624.147 59.7031C624.147 59.9531 623.943 60.2188 623.537 60.5C621.037 62.2188 618.865 64.75 617.022 68.0938C616.709 68.6562 616.381 68.9375 616.037 68.9375C615.725 68.9375 615.412 68.6562 615.1 68.0938C613.256 64.75 611.084 62.2188 608.584 60.5C608.178 60.2188 607.975 59.9531 607.975 59.7031C607.975 59.4219 608.147 59.1562 608.49 58.9062C610.365 57.5312 611.303 55.7656 611.303 53.6094V31.0625C611.303 28.9062 610.397 27.8281 608.584 27.8281C607.959 27.8281 607.381 28.2031 606.85 28.9531C606.318 29.7031 605.772 30.0781 605.209 30.0781C604.678 30.0781 604.412 29.7656 604.412 29.1406Z" fill="white"/>
<path d="M672.075 42.3594C672.075 32.1094 676.247 25.1719 684.591 21.5469C688.966 19.6406 692.154 18.6875 694.154 18.6875C694.372 18.6875 694.529 18.7969 694.622 19.0156L701.279 35.75C701.372 35.9375 701.419 36.125 701.419 36.3125C701.419 36.7188 701.154 37.0312 700.622 37.25L682.341 44.5156C681.779 44.7344 681.497 45.0469 681.497 45.4531C681.497 45.6094 681.513 45.7656 681.544 45.9219C681.95 48.2656 682.591 50.2656 683.466 51.9219C686.341 57.2969 689.779 59.9844 693.779 59.9844C695.404 59.9844 697.466 59.3594 699.966 58.1094C700.404 57.8906 700.716 57.7812 700.904 57.7812C701.56 57.7812 701.888 58.1562 701.888 58.9062C701.888 59.25 701.607 59.5781 701.044 59.8906C696.419 62.4844 691.872 65.2969 687.404 68.3281C686.81 68.7344 686.341 68.9375 685.997 68.9375C685.654 68.9375 685.372 68.5625 685.154 67.8125C684.966 67.0625 684.513 66.4531 683.794 65.9844C675.982 60.9219 672.075 53.0469 672.075 42.3594ZM680.935 37.8594C680.935 39.9844 680.997 41.3906 681.122 42.0781C681.185 42.3594 681.294 42.5 681.45 42.5C681.638 42.5 681.841 42.4531 682.06 42.3594L691.154 38.75C691.591 38.5625 691.81 38.2812 691.81 37.9062C691.81 37.75 691.763 37.5625 691.669 37.3438L686.325 23.8906C686.2 23.5781 686.044 23.4219 685.857 23.4219C685.7 23.4219 685.591 23.4375 685.529 23.4688C682.466 24.625 680.935 29.4219 680.935 37.8594Z" fill="white"/>
<path d="M185.245 67.2137C170.961 67.2137 163.971 59.0608 163.971 48.7941C163.971 38.5274 173.696 25.5431 187.981 25.5431C202.265 25.5431 209.255 33.6961 209.255 43.9627C209.255 54.2294 199.53 67.2137 185.245 67.2137ZM185.853 54.2294C190.716 54.2294 194.059 49.7 194.059 44.8686C194.059 40.0373 191.628 38.8294 187.373 38.8294C183.118 38.8294 179.167 43.3588 179.167 48.1902C179.167 53.0216 181.598 54.2294 185.853 54.2294ZM224.451 66.3078H209.559L221.716 11.351H236.608L224.451 66.0059V66.3078Z" fill="white"/>
<path fill-rule="evenodd" clip-rule="evenodd" d="M141.177 67.2137C136.618 67.2137 132.059 65.7039 129.628 62.0804L128.716 66.3079L112 75.0647L113.824 66.3079L125.981 11.351H140.873L136.618 30.6765C139.961 27.0529 143.304 25.5431 147.559 25.5431C156.677 25.5431 162.451 31.2804 162.451 42.151C162.451 53.0216 155.461 67.2137 141.177 67.2137ZM146.951 45.1706C146.951 50.3039 143.304 54.2294 138.442 54.2294C133.579 54.2294 133.275 53.3235 131.755 51.5118L134.187 41.5471C136.01 39.7353 137.834 38.8294 140.265 38.8294C143.912 38.8294 146.951 41.5471 146.951 45.4726V45.1706Z" fill="white"/>
<path d="M252.108 67.2137C243.598 67.2137 237.216 64.1941 237.216 57.249C237.216 50.3039 237.216 55.1353 237.52 54.2294L240.863 39.4333H234.177L237.216 26.751H243.902L246.334 15.8804L263.049 8.9353L261.226 15.8804L258.795 26.751H267L263.961 39.4333H255.755L253.628 49.0961V50.9078C253.628 52.7196 254.844 54.2294 257.275 54.2294C259.706 54.2294 259.098 54.2294 259.402 53.9275V65.7039C257.883 66.9118 255.147 67.2137 252.412 67.2137H252.108Z" fill="white"/>
</svg>
