<?xml version="1.0" encoding="utf-8"?>
<!-- Generator: Adobe Illustrator 27.6.1, SVG Export Plug-In . SVG Version: 6.00 Build 0)  -->
<svg version="1.1" id="Layer_1" xmlns="http://www.w3.org/2000/svg" xmlns:xlink="http://www.w3.org/1999/xlink" x="0px" y="0px"
	 viewBox="0 0 3046.87 1494.28" style="enable-background:new 0 0 3046.87 1494.28;" xml:space="preserve">
<style type="text/css">
	.st0{fill:#FFFFFF;}
</style>
<g>
	<g>
		<path class="st0" d="M1019.08,572.67v345.57h-70.47V572.67H1019.08z"/>
		<path class="st0" d="M1306.25,685.12v233.6c0,72.4-56.47,116.8-125.49,116.8c-66.6,0-116.32-41.51-121.14-99.91l69.98,0.48
			c2.9,24.61,24.61,35.72,53.57,35.72c27.03,0,52.61-14.48,52.61-52.61v-29.44c-17.86,11.58-41.02,18.34-66.6,18.34
			c-64.19,0-115.83-52.12-115.83-111.97c0-69.5,51.64-116.32,115.83-116.32c25.58,0,48.75,6.76,66.6,18.34v-12.55L1306.25,685.12z
			 M1235.78,822.68v-56.95c-14.48-20.75-34.27-27.99-54.06-27.99c-34.75,0-58.4,23.17-58.4,58.4c0,26.06,24.13,54.06,58.4,54.06
			C1201.52,850.67,1221.79,843.43,1235.78,822.68z"/>
		<path class="st0" d="M1587.15,799.03c0,71.91-53.09,123.07-124.52,123.07c-71.91,0-125-51.16-125-123.07
			c0-71.43,53.09-123.56,125-123.56C1534.06,675.47,1587.15,727.6,1587.15,799.03z M1519.09,799.03c0-33.78-22.2-61.3-56.47-61.3
			c-34.75,0-56.95,27.51-56.95,61.3c0,34.75,22.2,60.81,56.95,60.81C1496.89,859.36,1519.09,833.78,1519.09,799.03z"/>
		<path class="st0" d="M2024.42,685.61v232.15l-69.02,0.48v-13.03c-17.86,11.58-41.02,18.82-66.6,18.82
			c-64.19,0-115.83-54.54-115.83-121.62c0-67.57,51.64-122.11,115.83-122.11c25.58,0,48.75,7.24,66.6,18.82v-13.03L2024.42,685.61z
			 M1954.92,837.64v-70.95c-14.48-20.75-34.75-26.55-55.02-26.55c-35.23,0-59.85,28.48-59.85,62.26c0,33.3,24.61,61.78,59.85,61.78
			C1920.17,864.18,1940.44,858.39,1954.92,837.64z"/>
		<path class="st0" d="M2308.21,792.27v125.97h-68.05V800.47c0-38.13-18.82-57.92-52.61-57.92c-17.38,0-37.16,10.14-53.57,29.44
			v146.24h-69.5V686.09h69.5v17.37c18.82-14.96,41.02-23.17,67.09-23.17C2262.84,680.3,2308.21,723.73,2308.21,792.27
			L2308.21,792.27z"/>
		<path class="st0" d="M916.28,917.76h-71.43l-46.82-173.27L697.64,917.76h-80.12l154.93-268.35l-25.1-93.63L538.37,917.76h-80.12
			l264.97-458.99h70.47l30.41,114.39h72.4l-49.23,85.91L916.28,917.76z"/>
		<path class="st0" d="M2588.62,572.67v345.57h-70.47v-13.03c-17.86,11.58-41.02,18.82-66.6,18.82
			c-64.19,0-115.83-54.54-115.83-122.11c0-67.09,51.64-121.62,115.83-121.62c25.58,0,48.75,7.24,66.6,18.82V572.67H2588.62z
			 M2518.16,837.64v-71.43c-14.48-20.75-35.23-26.55-55.5-26.55c-35.72,0-60.33,28.48-60.33,62.26c0,34.27,24.61,62.74,60.33,62.74
			C2482.92,864.66,2503.19,858.87,2518.16,837.64L2518.16,837.64z"/>
		<path class="st0" d="M1759.93,744.49c-15.44,1.93-51.16,3.86-72.4,32.82v140.93h-69.5V686.57h69.5v17.38
			c15.93-13.51,39.58-21.72,72.4-18.34V744.49z"/>
	</g>
</g>
</svg>
